<?xml version="1.0" standalone="no"?>
<!DOCTYPE svg PUBLIC "-//W3C//DTD SVG 20010904//EN"
 "http://www.w3.org/TR/2001/REC-SVG-20010904/DTD/svg10.dtd">
<svg version="1.0" xmlns="http://www.w3.org/2000/svg"
 width="1280.000000pt" height="1280.000000pt" viewBox="0 0 1280.000000 1280.000000"
 preserveAspectRatio="xMidYMid meet">
<g transform="translate(0.000000,1280.000000) scale(0.100000,-0.100000)"
fill="#000000" stroke="none">
<path d="M5160 12201 c-491 -104 -956 -268 -1395 -491 -93 -48 -192 -100 -220
-117 l-50 -30 3 -64 c1 -35 22 -248 47 -474 25 -225 48 -442 51 -481 l7 -71
-134 -100 c-279 -208 -609 -512 -804 -741 -38 -45 -74 -82 -80 -82 -6 0 -246
47 -534 105 -288 57 -528 102 -533 98 -17 -10 -169 -248 -252 -392 -146 -254
-303 -585 -406 -855 -51 -136 -148 -437 -156 -484 l-6 -38 421 -339 c232 -186
421 -342 421 -347 0 -5 -11 -87 -25 -181 -13 -95 -30 -230 -36 -302 -13 -136
-18 -550 -9 -764 l5 -124 -450 -301 -450 -301 3 -40 c4 -59 67 -334 113 -497
82 -290 185 -569 316 -853 70 -151 207 -411 228 -434 11 -11 36 -11 162 3 566
63 879 96 903 96 24 0 43 -20 143 -152 214 -283 484 -575 715 -773 50 -43 92
-84 92 -89 0 -6 -47 -247 -105 -535 -57 -289 -101 -529 -98 -534 10 -16 252
-171 402 -257 198 -114 531 -274 743 -358 181 -73 524 -188 588 -198 l36 -6
338 421 c187 232 343 421 348 421 5 0 87 -11 181 -25 95 -13 231 -30 302 -37
146 -14 651 -17 792 -5 l92 8 300 -450 c165 -247 304 -452 310 -455 12 -8 315
55 479 100 396 107 815 273 1171 464 199 106 184 92 176 169 -4 36 -26 246
-50 466 -24 220 -47 434 -51 476 l-6 76 113 85 c323 241 598 496 851 787 l47
55 513 -102 c282 -56 524 -103 537 -105 21 -2 34 11 80 78 181 261 422 721
558 1065 83 210 188 520 199 588 l6 38 -399 321 c-219 176 -409 329 -422 340
l-23 19 26 179 c14 99 31 239 37 310 13 136 18 552 9 764 l-5 124 450 301 450
301 -3 40 c-4 59 -67 334 -113 497 -83 294 -186 571 -321 863 -72 156 -201
400 -223 424 -11 11 -94 4 -532 -43 -285 -31 -528 -56 -540 -56 -16 0 -48 35
-124 136 -212 283 -511 607 -737 799 -45 38 -82 75 -82 80 0 6 47 247 105 535
57 288 101 528 98 533 -9 15 -244 166 -383 247 -241 140 -594 307 -864 410
-137 51 -437 148 -484 156 l-38 6 -339 -421 c-190 -237 -345 -421 -354 -421
-9 0 -56 7 -106 15 -294 49 -626 70 -935 60 -129 -4 -255 -8 -279 -9 l-44 -1
-301 450 c-166 248 -308 451 -316 452 -8 1 -76 -11 -150 -26z m1575 -2846
c1150 -135 2111 -909 2482 -2000 105 -309 153 -610 153 -955 0 -479 -95 -888
-305 -1315 -133 -272 -312 -527 -520 -744 -481 -501 -1114 -814 -1815 -896
-162 -19 -498 -19 -660 0 -1030 120 -1904 742 -2351 1670 -196 408 -289 821
-289 1285 0 484 100 911 311 1333 450 896 1314 1500 2319 1622 151 18 517 18
675 0z"/>
</g>
</svg>
